<svg xmlns="http://www.w3.org/2000/svg" xmlns:xlink="http://www.w3.org/1999/xlink" xml:space="preserve" version="1.1" style="shape-rendering:geometricPrecision;text-rendering:geometricPrecision;image-rendering:optimizeQuality;" viewBox="0 0 60000 75000" x="0px" y="0px" fill-rule="evenodd" clip-rule="evenodd"><defs><style type="text/css">
   
    .fil0 {fill:black;fill-rule:nonzero}
   
  </style></defs><g><path class="fil0" d="M1167 28429l3364 0c215,0 389,174 389,389l0 12c2302,403 4002,-612 5701,-1626 188,-112 272,-163 319,-191 827,-490 1452,-844 2128,-1090 682,-248 1395,-379 2383,-420 356,-14 681,3 978,49l1 0 0 0c1145,177 1925,760 2431,1577 486,784 705,1776 747,2817 1,32 2,65 3,97l1610 27c67,1 127,1 183,1 422,0 703,0 1152,297 452,299 734,753 846,1245 84,369 72,761 -36,1123 -110,367 -319,707 -628,967 -94,79 -196,150 -307,212 248,240 422,539 522,861 96,311 121,644 76,965 -46,325 -164,641 -353,914 -149,215 -341,403 -575,548 295,252 499,577 612,928 99,308 128,638 85,956 -43,322 -157,634 -342,904 -132,193 -299,364 -500,502 192,197 331,417 421,649 136,349 157,721 77,1077 -79,349 -255,682 -518,960 -393,416 -978,711 -1712,754l-236 14c-1324,78 -3141,185 -5219,132 -4,0 -8,0 -12,0 -334,-9 -675,-21 -1022,-39l0 0c-1937,-8 -3215,-652 -4482,-1290 -1243,-626 -2474,-1246 -4338,-1165l0 2568c0,215 -174,389 -389,389l-3364 0c-215,0 -389,-174 -389,-389l0 -15334c0,-215 174,-389 389,-389zm27993 -6775c11,76 18,151 21,224 16,325 -39,614 -163,854 -124,242 -314,430 -566,548 41,81 72,173 90,280 79,466 355,789 707,966 226,114 486,172 747,172 262,0 521,-57 747,-172 352,-178 628,-500 707,-966 21,-122 58,-225 108,-313 -221,-124 -387,-307 -498,-536 -122,-250 -175,-553 -159,-890 3,-72 10,-146 20,-221 -286,161 -601,250 -933,250 -293,0 -572,-69 -830,-195zm-1309 1180c127,-7 238,-31 333,-72 143,-61 249,-163 317,-295 76,-148 110,-339 99,-562 -13,-262 -87,-564 -225,-891 -40,-48 -78,-99 -115,-151 -407,-571 -659,-1353 -659,-2209 0,-857 252,-1638 659,-2209 434,-609 1045,-986 1731,-986 685,0 1296,377 1731,986 407,571 659,1353 659,2209 0,839 -241,1606 -634,2173 -4,20 -10,40 -18,60 -148,346 -229,673 -243,960 -12,237 23,444 102,607 70,144 178,253 322,315 73,31 156,52 249,61 341,-92 758,-87 1152,-83 95,1 189,2 277,2l6045 -39c12,-1 24,-2 37,-2 215,0 389,174 389,389l0 1353 -1 0c0,203 -157,374 -363,388 -507,34 -987,64 -1430,91 -920,56 -1676,103 -2607,195 -494,49 -935,172 -1275,463 -345,296 -608,781 -751,1561 -380,2375 -525,5158 -553,8029 -28,2881 62,5859 152,8605l0 0 0 11c1,214 -172,388 -386,389l-1790 10c-214,7 -393,-161 -400,-376l-328 -9906 -658 6 -327 9900 0 0c-6,209 -179,376 -389,376l-1944 -10c-7,0 -15,0 -22,0 -214,-7 -382,-186 -376,-400 19,-572 39,-1155 60,-1745 178,-5052 374,-10633 -307,-14890 -143,-780 -406,-1265 -751,-1561 -340,-292 -781,-414 -1275,-463 -930,-92 -1687,-138 -2607,-195 -437,-27 -910,-56 -1409,-90 -213,-2 -385,-176 -385,-389l0 -1353 2 0 0 -2c1,-214 175,-387 389,-386l6080 39c88,1 181,-1 277,-2 399,-5 822,-9 1165,87zm3237 -5939c-290,-406 -678,-658 -1098,-658 -419,0 -808,251 -1098,658 -317,445 -513,1066 -513,1759 0,693 196,1315 513,1759 290,406 678,658 1098,658 419,0 808,-251 1098,-658 317,-445 513,-1066 513,-1759 0,-693 -196,-1315 -513,-1759zm2 16613l328 9907 1025 -5c-86,-2638 -166,-5473 -139,-8237 28,-2911 176,-5735 563,-8151l2 -9c179,-976 534,-1606 1010,-2014 481,-413 1064,-583 1704,-646 962,-95 1718,-141 2637,-198 320,-20 661,-41 1061,-67l0 -599 -5690 37c-93,1 -189,-1 -286,-2 -498,-6 -1055,-12 -1085,164 -125,738 -564,1249 -1124,1532 -338,171 -719,257 -1097,257 -378,0 -759,-86 -1097,-257 -560,-283 -999,-794 -1124,-1532 -30,-176 -587,-169 -1085,-164 -97,1 -192,2 -286,2l-5690 -37 0 599c399,26 740,47 1061,67 919,56 1675,103 2637,198 639,63 1222,233 1704,646 476,408 831,1038 1010,2014l2 14c692,4330 495,9950 316,15037 -16,454 -32,903 -47,1347l1179 6 327 -9895c7,-212 183,-380 395,-376l1399 -13c211,-2 384,166 391,376l0 0zm22887 -2624c133,12 232,130 220,263 -12,133 -130,232 -263,220l-183 -17c-1399,-127 -2809,-254 -4089,-1293 -104,-85 -120,-237 -35,-341 85,-104 237,-120 341,-35 1165,946 2502,1067 3827,1187l183 17zm-16080 6319c-234,-145 -425,-333 -575,-548 -190,-273 -307,-589 -353,-914 -45,-321 -20,-654 76,-965 99,-322 273,-621 522,-861 -111,-62 -213,-133 -307,-212 -309,-260 -518,-600 -628,-967 -108,-362 -120,-753 -36,-1123 112,-492 394,-946 846,-1245 449,-297 730,-297 1152,-297 56,0 116,0 183,-1l1610 -27c1,-32 2,-65 3,-97 42,-1041 261,-2033 747,-2817 506,-816 1285,-1400 2431,-1577l0 0 1 0c297,-46 623,-63 978,-49 989,40 1702,171 2383,420 676,246 1302,599 2128,1090 47,28 132,79 319,191 1700,1015 3399,2029 5701,1626l0 -2930c0,-215 174,-389 389,-389l3364 0c215,0 389,174 389,389l0 15679c0,215 -174,389 -389,389l-3364 0c-213,0 -387,-172 -389,-385 -1864,-81 -3095,539 -4338,1165 -1266,638 -2545,1282 -4482,1290l0 0c-347,18 -688,31 -1022,39 -4,0 -8,0 -12,0 -2078,53 -3895,-54 -5219,-132l-236 -14c-734,-43 -1319,-338 -1712,-754 -262,-278 -439,-610 -518,-960 -80,-356 -58,-727 77,-1077 90,-232 229,-452 421,-649 -201,-138 -368,-309 -500,-502 -185,-269 -299,-581 -342,-904 -42,-318 -14,-648 85,-956 113,-352 317,-676 612,-928zm912 -3793l2061 -35c-154,-363 -273,-773 -343,-1224l0 0 0 -1c-67,-435 -114,-882 -134,-1331l-1604 27c-67,1 -133,1 -195,1 -281,0 -467,0 -723,169 -275,182 -448,462 -517,767 -55,240 -47,495 24,730 69,230 196,440 381,596 229,193 556,311 981,296 24,-1 47,1 70,4zm2485 734l-2689 46c-432,127 -705,445 -819,815 -62,202 -78,419 -48,631 29,208 104,408 222,579 224,323 619,546 1189,526l0 8 5822 -97 -1 -24c603,-34 1015,-387 1193,-822 71,-174 106,-360 101,-544 -5,-179 -47,-355 -130,-513 -203,-386 -663,-675 -1427,-662l-169 3c-164,454 -416,770 -717,959 -294,184 -625,245 -964,194 -315,-47 -635,-192 -934,-425 -224,-174 -438,-400 -630,-673zm4668 -582c398,195 683,488 861,827 139,266 211,558 218,854 8,290 -47,584 -159,857 -120,293 -306,562 -551,779 421,194 720,496 904,848 139,266 211,558 218,854 8,290 -47,584 -159,857 -159,388 -433,735 -810,974 249,179 437,403 568,653 139,266 211,558 218,854 8,290 -47,584 -159,857 -67,163 -154,318 -260,462 1438,-122 2493,-654 3540,-1181 1331,-671 2650,-1335 4688,-1251l0 -11187c-2508,396 -4304,-676 -6100,-1748 -24,-14 -57,-34 -316,-188 -792,-470 -1387,-807 -1998,-1029 -606,-221 -1248,-337 -2149,-374 -298,-12 -574,3 -831,42l0 0c-896,138 -1501,587 -1889,1215 -409,660 -594,1522 -631,2440 -5,118 -7,238 -7,358 6,27 10,55 11,84 0,31 -3,61 -9,89 9,507 59,1022 136,1525l0 0c159,1029 604,1780 1105,2170 193,150 389,242 572,269 159,24 310,-2 438,-82 212,-133 387,-416 483,-871 109,-516 114,-1172 70,-1818 -72,-1059 -272,-2069 -366,-2437 -53,-207 72,-419 280,-471 207,-53 419,72 471,280 46,180 116,503 185,905 995,35 1628,486 1938,1077 139,266 211,558 218,854 8,290 -47,584 -159,857 -123,300 -315,576 -570,796zm-6568 7292c-40,1 -79,2 -117,2l-477 8c-228,161 -378,354 -458,559 -79,202 -91,418 -44,627 48,214 160,421 326,598 265,281 670,480 1189,511l239 14c1310,77 3107,183 5151,131 601,-35 1012,-388 1190,-822 71,-174 106,-360 101,-544 -5,-179 -47,-355 -130,-513 -203,-386 -663,-675 -1427,-662l-5543 92 0 0zm-476 -3326c-475,130 -772,461 -895,842 -64,199 -82,412 -55,618 27,202 98,398 214,566 212,309 584,527 1117,526l57 -1 11 0 0 0 5558 -93c114,-2 223,1 328,10 40,-17 84,-27 130,-30 603,-34 1015,-387 1193,-822 71,-174 106,-360 101,-544 -5,-179 -47,-355 -130,-513 -203,-386 -663,-675 -1427,-662l-6202 103zm5801 -4243c550,-65 927,-403 1095,-813 71,-174 106,-360 101,-544 -5,-179 -47,-355 -130,-513 -175,-334 -543,-595 -1133,-651 36,284 67,585 88,887 38,557 41,1127 -21,1635zm13725 -6994l-2586 0 0 14900 2586 0 0 -14900zm-52376 5077c-133,12 -251,-86 -263,-220 -12,-133 86,-251 220,-263l183 -17c1325,-120 2662,-241 3827,-1187 104,-85 257,-69 341,35 85,104 69,257 -35,341 -1280,1039 -2690,1167 -4089,1293l-183 17zm15124 2042c23,-3 46,-5 70,-4 425,15 751,-103 981,-296 185,-156 313,-366 381,-596 70,-236 78,-491 24,-730 -70,-305 -242,-585 -517,-767 -256,-169 -442,-169 -723,-169 -62,0 -128,0 -195,-1l-1604 -27c-20,448 -67,896 -134,1331l0 1 0 0c-70,451 -189,861 -343,1224l2061 35zm-2485 734c-192,273 -407,499 -630,673 -299,232 -619,377 -934,425 -339,51 -670,-10 -964,-194 -302,-189 -554,-505 -717,-959l-169 -3c-764,-13 -1224,276 -1427,662 -83,158 -125,334 -130,513 -5,184 30,370 101,544 178,434 590,788 1193,822l-1 24 5822 97 0 -8c570,21 965,-203 1189,-526 119,-171 193,-372 222,-579 30,-212 14,-429 -48,-631 -114,-370 -387,-688 -819,-815l-2689 -46zm-4668 -582c-255,-220 -447,-496 -570,-796 -112,-273 -166,-567 -159,-857 8,-295 79,-588 218,-854 310,-591 942,-1042 1938,-1077 69,-402 139,-725 185,-905 53,-207 264,-333 471,-280 207,53 333,264 280,471 -94,368 -294,1378 -366,2437 -44,646 -39,1302 70,1818 96,455 271,738 483,871 128,80 278,106 438,82 183,-28 379,-119 572,-269 501,-390 947,-1141 1105,-2170l0 0c77,-502 127,-1018 136,-1525 -6,-29 -9,-59 -9,-89 0,-29 4,-57 11,-84 0,-120 -2,-239 -7,-358 -37,-918 -223,-1780 -631,-2440 -389,-627 -994,-1077 -1889,-1215l0 0c-256,-39 -533,-54 -831,-42 -901,37 -1544,154 -2149,374 -611,222 -1205,559 -1998,1029 -259,154 -292,173 -316,188 -1796,1072 -3591,2144 -6100,1748l0 11187c2038,-84 3356,580 4688,1251 1047,527 2102,1059 3540,1181 -106,-143 -193,-299 -260,-462 -112,-273 -166,-567 -159,-857 8,-295 79,-588 218,-854 131,-249 319,-474 568,-653 -377,-239 -651,-586 -810,-974 -112,-273 -166,-567 -159,-857 8,-295 79,-588 218,-854 184,-352 483,-654 904,-848 -246,-217 -431,-487 -551,-779 -112,-273 -166,-567 -159,-857 8,-295 79,-588 218,-854 178,-339 462,-633 861,-827zm7044 3966l-6202 -103c-764,-13 -1224,276 -1427,662 -83,158 -125,334 -130,513 -5,184 30,370 101,544 178,434 590,788 1193,822 46,3 90,13 130,30 105,-8 214,-11 328,-10l5558 93 0 0 11 0 57 1c533,1 905,-217 1117,-526 116,-169 187,-364 214,-566 27,-206 9,-419 -55,-618 -123,-381 -420,-712 -895,-842zm-359 3328c-39,0 -78,0 -117,-2l0 0 -5543 -92c-764,-13 -1224,276 -1427,662 -83,158 -125,334 -130,513 -5,184 30,370 101,544 178,434 589,787 1190,822 2044,52 3841,-54 5151,-131l239 -14c518,-30 923,-230 1189,-511 167,-176 278,-383 326,-598 47,-208 35,-425 -44,-627 -80,-205 -229,-398 -458,-559l-477 -8zm-5442 -7571c-62,-508 -59,-1078 -21,-1635 21,-302 51,-602 88,-887 -590,56 -958,317 -1133,651 -83,158 -125,334 -130,513 -5,184 30,370 101,544 168,410 545,749 1095,813zm-11139 -4076l-2586 0 0 14555 2586 0 0 -14555z"/></g><text x="0" y="60015" fill="#000000" font-size="5px" font-weight="bold" font-family="'Helvetica Neue', Helvetica, Arial-Unicode, Arial, Sans-serif">Created by Olena Panasovska</text><text x="0" y="60020" fill="#000000" font-size="5px" font-weight="bold" font-family="'Helvetica Neue', Helvetica, Arial-Unicode, Arial, Sans-serif">from the Noun Project</text></svg>