<svg xmlns="http://www.w3.org/2000/svg" version="1.1" viewBox="-5.0 -10.0 110.0 135.0">
 <g>
  <path d="m94.668 70.848h-1.4844v-53.605c0-4.1055-3.332-7.4375-7.4375-7.4375h-71.473c-4.1055 0-7.4375 3.332-7.4375 7.4375v53.59h-1.5039c-1.6367 0-2.9844 1.332-2.9844 2.9844v5.9531c0 5.7422 4.6836 10.426 10.426 10.426h74.438c5.7422 0 10.426-4.6836 10.426-10.426v-5.9531c0-1.6328-1.332-2.9688-2.9688-2.9688zm-84.863-53.605c0-2.4688 2-4.4688 4.4688-4.4688h71.469c2.4688 0 4.4688 2 4.4688 4.4688v53.59h-80.406zm84.863 62.531c0 4.1055-3.332 7.4375-7.4375 7.4375h-74.457c-4.1055 0-7.4375-3.332-7.4375-7.4375v-5.9531h86.363 0.015625 2.9688v5.9531z"/>
  <path d="m81.273 15.758h-62.547c-3.2891 0-5.9531 2.668-5.9531 5.9531v40.195c0 3.2891 2.668 5.9531 5.9531 5.9531h62.531c3.2891 0 5.9531-2.668 5.9531-5.9531v-40.195c0.015624-3.2852-2.6641-5.9531-5.9375-5.9531zm-46.895 48.953v-3.5c0-0.089844 0.074219-0.16797 0.16797-0.16797h13.969c0.089844 0 0.16797 0.074219 0.16797 0.16797v3.5c0 0.089843-0.074219 0.16797-0.16797 0.16797h-13.969c-0.09375 0.015625-0.16797-0.0625-0.16797-0.16797zm-5.3789-21.863c-1.4531-0.37891-2.8789-0.92578-4.1953-1.6367-1.3789-0.75781-2.2422-1.5-2.7109-2.332-0.68359-1.2266-0.4375-2.9844 0.54688-3.9844 0.63672-0.65234 1.3633-0.96875 2.1836-0.96875h0.21094c0.5 0.03125 1.0156 0.19531 1.5 0.45312 0.57031 3.1055 1.418 5.9531 2.4648 8.4688zm-0.15234-14.016c-0.03125-0.53125 0.13672-1.0312 0.5-1.4258 0.36328-0.39453 0.87891-0.62109 1.4258-0.62109h21.531c0.54687 0 1.0469 0.22656 1.4258 0.62109 0.36328 0.39453 0.54688 0.89453 0.5 1.4258-0.9375 12.668-6.3789 22.211-12.684 22.211-6.3047 0.019531-11.758-9.543-12.699-22.211zm27.684 5.5469c0.5-0.24219 1-0.42578 1.5-0.45312h0.21094c0.81641 0 1.5469 0.33203 2.1836 0.96875 0.98438 1 1.2266 2.7578 0.54688 3.9844-0.45312 0.83203-1.3164 1.5742-2.6953 2.332-1.3164 0.71094-2.7422 1.2578-4.1953 1.6367 1.0547-2.5156 1.8867-5.3633 2.4492-8.4688zm-17.242 19.332c0.74219 0.18359 1.4844 0.31641 2.2578 0.31641 0.75781 0 1.5-0.12109 2.2266-0.30469v4.3477h-4.5v-4.3594zm44.953 8.1992c0 1.6367-1.332 2.9844-2.9844 2.9844h-29.605c0-0.0625 0.015625-0.10547 0.015625-0.16797v-3.5156c0-1.7266-1.4102-3.1523-3.1523-3.1523h-1.7578v-5.6367c2.1367-1.332 4.0625-3.4844 5.668-6.2734 2.5312-0.36328 5.0156-1.1367 7.2578-2.3477 1.1953-0.65234 2.9102-1.7266 3.8945-3.5156 1.3164-2.3945 0.87891-5.5469-1.0312-7.5-1.3047-1.332-2.9375-1.9688-4.7266-1.8477-0.27344 0.015625-0.5625 0.0625-0.83203 0.12109 0.074219-0.66797 0.15234-1.332 0.19531-2 0.10547-1.332-0.36328-2.6836-1.2891-3.668-0.92578-1-2.2422-1.5742-3.6055-1.5742h-21.516c-1.3633 0-2.668 0.57422-3.6055 1.5742-0.92578 0.98438-1.3945 2.332-1.2891 3.668 0.046875 0.68359 0.12109 1.3633 0.19531 2.0312-0.27344-0.0625-0.5625-0.12109-0.83203-0.13672-1.7891-0.12109-3.4102 0.51562-4.7109 1.8477-1.9102 1.9531-2.3477 5.1055-1.0312 7.5 0.98438 1.7891 2.6953 2.8633 3.8945 3.5156 2.2422 1.2266 4.7266 1.9844 7.2578 2.3477 1.6055 2.7734 3.5312 4.9258 5.668 6.2578v5.6523h-1.7734c-1.7266 0-3.1523 1.4102-3.1523 3.1523v3.5c0 0.0625 0.015625 0.10547 0.015625 0.16797h-12.684c-1.6367 0-2.9844-1.332-2.9844-2.9844v-40.199c0-1.6367 1.332-2.9844 2.9844-2.9844h62.531c1.6367 0 2.9844 1.332 2.9844 2.9844z"/>
  <path d="m55.469 79.031h-10.926c-0.81641 0-1.4844 0.66797-1.4844 1.4844s0.66797 1.4844 1.4844 1.4844h10.926c0.81641 0 1.4844-0.66797 1.4844-1.4844 0-0.82031-0.66406-1.4844-1.4844-1.4844z"/>
  <path d="m72.805 80.516c0 1.9805-2.9727 1.9805-2.9727 0s2.9727-1.9805 2.9727 0"/>
  <path d="m78.289 80.516c0 1.9805-2.9727 1.9805-2.9727 0s2.9727-1.9805 2.9727 0"/>
  <path d="m83.773 80.516c0 1.9805-2.9688 1.9805-2.9688 0s2.9688-1.9805 2.9688 0"/>
  <path d="m41.547 43.121c2.7734 0 5.0156-2.2578 5.0156-5.0312 0-2.7734-2.2578-5.0156-5.0156-5.0156-2.7734 0-5.0312 2.2578-5.0312 5.0156 0 2.7734 2.2578 5.0312 5.0312 5.0312zm0-7.0742c1.1211 0 2.0469 0.91016 2.0469 2.0469s-0.91016 2.0625-2.0469 2.0625-2.0625-0.92578-2.0625-2.0625c0-1.1406 0.92578-2.0469 2.0625-2.0469z"/>
  <path d="m75.938 50.074h-15.484c-0.81641 0-1.4844 0.66797-1.4844 1.4844s0.66797 1.4844 1.4844 1.4844h15.5c0.81641 0 1.4844-0.66797 1.4844-1.4844s-0.66406-1.4844-1.5-1.4844z"/>
  <path d="m71.137 56.637h-10.684c-0.81641 0-1.4844 0.66797-1.4844 1.4844s0.66797 1.4844 1.4844 1.4844h10.684c0.81641 0 1.4844-0.66797 1.4844-1.4844s-0.66797-1.4844-1.4844-1.4844z"/>
 </g>
<text x="0.0" y="117.5" font-size="5.0" font-weight="bold" font-family="Arbeit Regular, Helvetica, Arial-Unicode, Arial, Sans-serif" fill="#000000">Created by Candy Design</text><text x="0.0" y="122.5" font-size="5.0" font-weight="bold" font-family="Arbeit Regular, Helvetica, Arial-Unicode, Arial, Sans-serif" fill="#000000">from Noun Project</text></svg>