<svg xmlns="http://www.w3.org/2000/svg" xmlns:xlink="http://www.w3.org/1999/xlink" version="1.2" baseProfile="tiny" x="0px" y="0px" viewBox="0 0 100 125" xml:space="preserve"><path d="M63.3902779,55.5048332h4.0380211c2.2977905-0.002636,4.1598587-1.8647079,4.1624985-4.1624985v-3.993042  c-0.0026398-2.2977905-1.8647079-4.1598625-4.1624985-4.1624985h-4.0380211  c-2.2977905,0.002636-4.1598625,1.8647079-4.1624985,4.1624985v3.993042  C59.2304153,53.6401253,61.0924873,55.5021973,63.3902779,55.5048332z M62.0027771,47.3492928  c0.0008354-0.7659454,0.6215515-1.3866615,1.3875008-1.3874969h4.0380211  c0.7659454,0.0008354,1.3866577,0.6215515,1.3874969,1.3874969v3.993042  c-0.0008392,0.7659454-0.6215515,1.3866653-1.3874969,1.3875008h-4.0380211  c-0.7659492-0.0008354-1.3866653-0.6215553-1.3875008-1.3875008V47.3492928z M78.7994843,89.9281998h4.038002  C85.1352921,89.92556,86.9973602,88.0634918,87,85.7657013v-3.9930496  c-0.0026398-2.2977905-1.8647079-4.1598587-4.1625137-4.1624985h-4.0380096  c-2.2977905,0.0026398-4.1598587,1.8647079-4.1624985,4.1624985v3.993042  c0.0026321,2.2977982,1.8647003,4.159874,4.1624985,4.1625061H78.7994843z M77.4119797,81.7726517  c0.0008392-0.7659454,0.6215591-1.3866577,1.3875046-1.3874969h4.038002  c0.7659607,0.0008392,1.3866806,0.6215515,1.3875122,1.3874969v3.993042  c-0.0008316,0.7659454-0.6215515,1.3866653-1.3875122,1.3874969h-4.0380096  c-0.7659454-0.0008316-1.3866653-0.6215515-1.3874969-1.3874969V81.7726517z M71.0482635,60.6985626  c-0.6413879-0.4192581-1.5012054-0.2393036-1.920639,0.4019775l-5.2081795,7.9643936l-2.2752838-2.5150146  c-0.5140572-0.5682373-1.3914299-0.6121597-1.9596634-0.0980988c-0.5682335,0.5140533-0.6121597,1.3914261-0.0981026,1.9596634l0,0  l3.4813995,3.84832c0.2629776,0.2907333,0.6366768,0.4566422,1.0287018,0.4567184  c0.0361328,0,0.0722656-0.0013809,0.1083984-0.0041504c0.4287338-0.033638,0.8176727-0.2640991,1.0530853-0.6240082  l6.1922607-9.4691429C71.8695755,61.9778366,71.6896057,61.1179581,71.0482635,60.6985626z M78.7994766,55.5048332h4.0380096  c2.2978058-0.002636,4.159874-1.8647079,4.1625137-4.1624985v-3.993042  c-0.0026398-2.2977905-1.8647079-4.1598625-4.1625137-4.1624985h-4.0380096  c-2.2977905,0.002636-4.1598587,1.8647079-4.1624985,4.1624985v3.993042  C74.6396179,53.6401253,76.5016861,55.5021973,78.7994766,55.5048332z M77.4119797,47.3492928  c0.0008316-0.7659454,0.6215515-1.3866615,1.3874969-1.3874969h4.0380096  c0.7659607,0.0008354,1.3866806,0.6215515,1.3875122,1.3874969v3.993042  c-0.0008316,0.7659454-0.6215515,1.3866653-1.3875122,1.3875008h-4.0380096  c-0.7659454-0.0008354-1.3866653-0.6215553-1.3874969-1.3875008V47.3492928z M78.7994766,72.7165222h4.0380096  C85.1352921,72.7138824,86.9973602,70.8518143,87,68.5540161v-3.9930344  c-0.0026398-2.2977943-1.8647079-4.1598625-4.1625137-4.1624985h-4.0380096  c-2.2977905,0.002636-4.1598587,1.8647041-4.1624985,4.1624985v3.9930344  C74.6396179,70.8518143,76.5016861,72.7138824,78.7994766,72.7165222z M77.4119797,64.5609818  c0.0008316-0.7659492,0.6215515-1.3866653,1.3874969-1.3875008h4.0380096  c0.7659607,0.0008354,1.3866806,0.6215515,1.3875122,1.3875008v3.9930344  c-0.0008316,0.7659531-0.6215515,1.3866653-1.3875122,1.3875046h-4.0380096  c-0.7659454-0.0008392-1.3866653-0.6215515-1.3874969-1.3875046V64.5609818z M47.9810791,89.9281998h4.0378418  c2.2977943-0.0026321,4.1598625-1.8647003,4.1624985-4.1624985v-3.9930344  c-0.002636-2.2977905-1.8647041-4.1598663-4.1624985-4.1624985h-4.0378418  c-2.2977943,0.0026321-4.1598625,1.8647079-4.1624985,4.1624985v3.9930344  C43.8212166,88.0634995,45.6832848,89.9255676,47.9810791,89.9281998z M46.5935783,81.7726669  c0.0008354-0.7659454,0.6215515-1.3866653,1.3875008-1.3875046h4.0378418  c0.7659492,0.0008392,1.3866653,0.6215591,1.3875008,1.3875046v3.9930344  c-0.0008354,0.7659531-0.6215515,1.3866653-1.3875008,1.3875046h-4.0378418  c-0.7659492-0.0008392-1.3866653-0.6215515-1.3875008-1.3875046V81.7726669z M17.1624889,72.7165222h4.0380344  c2.2977924-0.0026398,4.1598625-1.8647079,4.1624985-4.1625061v-3.9930344  c-0.002636-2.2977943-1.864706-4.1598625-4.1624985-4.1624985h-4.0380344C14.864707,60.4011192,13.0026369,62.2631874,13,64.5609818  v3.9930344C13.0026369,70.8518143,14.864707,72.7138824,17.1624889,72.7165222z M15.7749996,64.5609818  c0.0008364-0.7659492,0.6215534-1.3866653,1.3874893-1.3875008h4.0380344  c0.7659473,0.0008354,1.3866634,0.6215515,1.3874989,1.3875008v3.9930344  c-0.0008354,0.7659531-0.6215515,1.3866653-1.3874989,1.3875046h-4.0380344  c-0.7659359-0.0008392-1.3866529-0.6215515-1.3874893-1.3875046V64.5609818z M17.1624889,55.5048332h4.0380344  c2.2977924-0.002636,4.1598625-1.8647079,4.1624985-4.1624985v-3.993042  c-0.002634-2.2977905-1.864706-4.1598625-4.1624985-4.1624985h-4.0380344C14.864707,43.1894302,13.002635,45.0515022,13,47.3492928  v3.993042C13.0026369,53.6401253,14.864707,55.5021973,17.1624889,55.5048332z M15.7749996,47.3492928  c0.0008364-0.7659454,0.6215534-1.3866615,1.3874893-1.3874969h4.0380344  c0.7659473,0.0008354,1.3866634,0.6215515,1.3874989,1.3874969v3.993042  c-0.0008354,0.7659454-0.6215515,1.3866653-1.3874989,1.3875008h-4.0380344  c-0.7659359-0.0008354-1.3866529-0.6215553-1.3874893-1.3875008V47.3492928z M17.1624889,89.9281998h4.0380344  c2.2977924-0.0026398,4.1598644-1.8647079,4.1624985-4.1624985v-3.9930496  c-0.002636-2.2977905-1.864706-4.1598587-4.1624985-4.1624985h-4.0380344C14.864707,77.612793,13.0026369,79.4748611,13,81.7726517  v3.993042C13.0026293,88.0634918,14.8647032,89.9255676,17.1624889,89.9281998L17.1624889,89.9281998z M15.7749996,81.7726517  c0.0008364-0.7659454,0.6215534-1.3866577,1.3874893-1.3874969h4.0380344  c0.7659473,0.0008392,1.3866634,0.6215515,1.3874989,1.3874969v3.993042  c-0.0008354,0.7659454-0.6215515,1.3866653-1.3874989,1.3874969h-4.0380344  c-0.7659359-0.0008316-1.3866529-0.6215515-1.3874893-1.3874969V81.7726517z M63.3902779,89.9281921h4.0380211  c2.2977905-0.0026398,4.1598587-1.8647079,4.1624985-4.1624985v-3.993042  c-0.0026398-2.2977905-1.8647079-4.1598587-4.1624985-4.1624985h-4.0380211  c-2.2977905,0.0026398-4.1598625,1.8647079-4.1624985,4.1624985v3.993042  c0.0026283,2.2977982,1.8647003,4.159874,4.1624985,4.1625061V89.9281921z M62.0027771,81.7726517  c0.0008354-0.7659454,0.6215515-1.3866577,1.3875008-1.3874969h4.0380211  c0.7659454,0.0008392,1.3866577,0.6215515,1.3874969,1.3874969v3.993042  c-0.0008392,0.7659454-0.6215515,1.3866653-1.3874969,1.3874969h-4.0380211  c-0.7659492-0.0008316-1.3866653-0.6215515-1.3875008-1.3874969V81.7726517z M32.5717049,89.9281998h4.0380211  c2.2977943-0.0026321,4.1598663-1.8647003,4.1625023-4.1624985v-3.9930344  c-0.002636-2.2977905-1.8647079-4.1598663-4.1625023-4.1624985h-4.0380211  c-2.2977924,0.0026321-4.1598625,1.8647079-4.1625004,4.1624985v3.9930344  C28.4118423,88.0634995,30.2739124,89.9255676,32.5717049,89.9281998z M31.1842041,81.7726669  c0.0008354-0.7659454,0.6215534-1.3866653,1.3875008-1.3875046h4.0380211  c0.7659492,0.0008392,1.3866653,0.6215591,1.3875008,1.3875046v3.9930344  c-0.0008354,0.7659531-0.6215515,1.3866653-1.3875008,1.3875046h-4.0380211  c-0.7659473-0.0008392-1.3866653-0.6215515-1.3875008-1.3875046V81.7726669z M86.6299973,12.4449997h-1.0174942V9.1149998  c0-3.5760436-2.8989639-6.4749994-6.4750061-6.4749994s-6.4750137,2.8989561-6.4750137,6.4749994v3.3299999H27.3374882V9.1149998  c0-3.5760436-2.8989449-6.4749994-6.4749889-6.4749994s-6.4749994,2.8989561-6.4749994,6.4749994v3.3299999h-1.0174999  c-4.8509197,0.0055056-8.7819939,3.9365807-8.7875118,8.7875004v67.340004  c0.005517,4.8509216,3.9365916,8.7819901,8.7875118,8.7874985h73.2599945  c4.8509216-0.0055084,8.7819977-3.9365768,8.7874908-8.7874985v-67.340004  C95.4119949,16.3815804,91.4809189,12.4505053,86.6299973,12.4449997z M75.4374847,9.1149998  c0-2.0434532,1.6565628-3.6999998,3.7000122-3.6999998c2.043457,0,3.6999893,1.6565466,3.6999893,3.6999998V22.25  c0,2.0434532-1.6565323,3.7000008-3.6999893,3.7000008c-2.0434494,0-3.7000122-1.6565475-3.7000122-3.7000008V9.1149998z   M17.1624889,9.1149998c0-2.0434532,1.6565571-3.6999998,3.7000103-3.6999998s3.6999893,1.6565466,3.6999893,3.6999998V22.25  c0,2.0434532-1.6565361,3.7000008-3.6999893,3.7000008S17.1624889,24.2934532,17.1624889,22.25V9.1149998z M92.6424866,88.5725021  c-0.0036926,3.3190765-2.6934128,6.0087891-6.0124893,6.0124969H13.3699999  c-3.3190746-0.0037079-6.0087919-2.6934204-6.0125113-6.0124969V38.5299988h85.284996V88.5725021z M92.6424866,35.7550011H7.3574886  v-14.522501c0.0037193-3.3190746,2.6934366-6.0087919,6.0125113-6.0124998h1.0174999V22.25  c0,3.5760441,2.8989573,6.4750004,6.4749994,6.4750004S27.3374882,25.8260441,27.3374882,22.25v-7.0299997h45.3249969V22.25  c0,3.5760441,2.8989716,6.4750004,6.4750137,6.4750004S85.6125031,25.8260441,85.6125031,22.25v-7.0299997h1.0174942  c3.3190765,0.0037079,6.0087967,2.6934252,6.0124893,6.0124998V35.7550011z M32.5717049,72.7165222h4.0380211  c2.2977943-0.0026398,4.1598663-1.8647079,4.1625023-4.1625061v-3.9930344  c-0.002636-2.2977943-1.8647079-4.1598625-4.1625023-4.1624985h-4.0380211  c-2.2977924,0.002636-4.1598625,1.8647041-4.1625004,4.1624985v3.9930344  C28.4118423,70.8518143,30.2739124,72.7138824,32.5717049,72.7165222z M31.1842041,64.5609818  c0.0008354-0.7659492,0.6215534-1.3866653,1.3875008-1.3875008h4.0380211  c0.7659492,0.0008354,1.3866653,0.6215515,1.3875008,1.3875008v3.9930344  c-0.0008354,0.7659531-0.6215515,1.3866653-1.3875008,1.3875046h-4.0380211  c-0.7659473-0.0008392-1.3866653-0.6215515-1.3875008-1.3875046V64.5609818z M47.9810829,55.5048332h4.0378418  c2.2977943-0.002636,4.1598663-1.8647079,4.1625023-4.1624985v-3.993042  c-0.002636-2.2977905-1.8647079-4.1598625-4.1625023-4.1624985h-4.0378456  c-2.2977943,0.002636-4.1598625,1.8647079-4.1624985,4.1624985v3.993042  c0.002636,2.2977905,1.8647041,4.1598625,4.1624985,4.1624985H47.9810829z M46.593586,47.3492928  c0.0008354-0.7659454,0.6215515-1.3866615,1.3874969-1.3874969h4.0378418  c0.7659492,0.0008354,1.3866653,0.6215515,1.3875008,1.3874969v3.993042  c-0.0008354,0.7659454-0.6215515,1.3866653-1.3875008,1.3875008h-4.0378456  c-0.7659492-0.0008354-1.3866653-0.6215553-1.3875008-1.3875008L46.593586,47.3492928z M47.9810829,72.7165222h4.0378418  c2.2977943-0.0026398,4.1598663-1.8647079,4.1625023-4.1625061v-3.9930344  c-0.002636-2.2977943-1.8647079-4.1598625-4.1625023-4.1624985h-4.0378456  c-2.2977943,0.002636-4.1598625,1.8647041-4.1624985,4.1624985v3.9930344  c0.002636,2.2977982,1.8647041,4.1598663,4.1624985,4.1625061H47.9810829z M46.593586,64.5609818  c0.0008354-0.7659492,0.6215515-1.3866653,1.3874969-1.3875008h4.0378418  c0.7659492,0.0008354,1.3866653,0.6215515,1.3875008,1.3875008v3.9930344  c-0.0008354,0.7659531-0.6215515,1.3866653-1.3875008,1.3875046h-4.0378456  c-0.7659492-0.0008392-1.3866653-0.6215515-1.3875008-1.3875046L46.593586,64.5609818z M32.5717049,55.5048332h4.0380211  c2.2977943-0.002636,4.1598663-1.8647079,4.1625023-4.1624985v-3.993042  c-0.002636-2.2977905-1.8647079-4.1598625-4.1625023-4.1624985h-4.0380211  c-2.2977924,0.002636-4.1598625,1.8647079-4.1625004,4.1624985v3.993042  C28.4118423,53.6401253,30.2739124,55.5021973,32.5717049,55.5048332z M31.1842041,47.3492928  c0.0008354-0.7659454,0.6215534-1.3866615,1.3875008-1.3874969h4.0380211  c0.7659492,0.0008354,1.3866653,0.6215515,1.3875008,1.3874969v3.993042  c-0.0008354,0.7659454-0.6215515,1.3866653-1.3875008,1.3875008h-4.0380211  c-0.7659473-0.0008354-1.3866653-0.6215553-1.3875008-1.3875008V47.3492928z"/><text x="0" y="115" fill="#000000" font-size="5px" font-weight="bold" font-family="'Helvetica Neue', Helvetica, Arial-Unicode, Arial, Sans-serif">Created by rod blo</text><text x="0" y="120" fill="#000000" font-size="5px" font-weight="bold" font-family="'Helvetica Neue', Helvetica, Arial-Unicode, Arial, Sans-serif">from the Noun Project</text></svg>