<svg width="23" height="22" viewBox="0 0 23 22" fill="none" xmlns="http://www.w3.org/2000/svg">
<path d="M1.47687 10.9689L3.69219 8.75362M3.69219 8.75362L11.4458 1L19.1994 8.75362M3.69219 8.75362V19.8302C3.69219 20.442 4.1881 20.9379 4.79985 20.9379H8.12283M19.1994 8.75362L21.4147 10.9689M19.1994 8.75362V19.8302C19.1994 20.442 18.7035 20.9379 18.0918 20.9379H14.7688M8.12283 20.9379C8.73457 20.9379 9.23049 20.442 9.23049 19.8302V15.3996C9.23049 14.7878 9.7264 14.2919 10.3381 14.2919H12.5535C13.1652 14.2919 13.6611 14.7878 13.6611 15.3996V19.8302C13.6611 20.442 14.157 20.9379 14.7688 20.9379M8.12283 20.9379H14.7688" stroke="#18181B" stroke-width="1.2" stroke-linecap="round" stroke-linejoin="round"/>
</svg>
