<svg width="17" height="14" viewBox="0 0 17 14" fill="none" xmlns="http://www.w3.org/2000/svg">
<path d="M11.8823 2.27271L14.5444 4.7396C14.6566 4.84352 14.6566 5.01309 14.5444 5.11701L8.09861 11.0901L5.35972 11.3718C4.99375 11.41 4.68385 11.1229 4.72517 10.7837L5.02917 8.24575L11.475 2.27271C11.5872 2.16878 11.7701 2.16878 11.8823 2.27271ZM16.6635 1.64642L15.2233 0.31178C14.7747 -0.103927 14.0457 -0.103927 13.5941 0.31178L12.5493 1.27994C12.4372 1.38386 12.4372 1.55343 12.5493 1.65736L15.2115 4.12424C15.3236 4.22817 15.5066 4.22817 15.6187 4.12424L16.6635 3.15609C17.1122 2.73764 17.1122 2.06212 16.6635 1.64642ZM11.3333 9.46552V12.2497H1.88889V3.49795H8.67118C8.76562 3.49795 8.85417 3.4624 8.92205 3.40223L10.1026 2.30826C10.3269 2.10041 10.1675 1.74761 9.85174 1.74761H1.41667C0.634549 1.74761 0 2.33561 0 3.06036V12.6872C0 13.412 0.634549 14 1.41667 14H11.8056C12.5877 14 13.2222 13.412 13.2222 12.6872V8.37156C13.2222 8.07892 12.8415 7.93397 12.6172 8.13909L11.4366 9.23305C11.3717 9.29596 11.3333 9.378 11.3333 9.46552Z" fill="#18181B" fill-opacity="0.5"/>
</svg>
