<svg xmlns="http://www.w3.org/2000/svg" version="1.1" viewBox="-5.0 -10.0 110.0 135.0">
 <path d="m8.375 83.223h4v-18.938c0-0.82812 0.67188-1.5 1.5-1.5h12.641c0.82812 0 1.5 0.67188 1.5 1.5v18.938h4.2344v-40.801c0-0.82812 0.67188-1.5 1.5-1.5h12.641c0.82812 0 1.5 0.67188 1.5 1.5v40.801h4.2344v-29.02c0-0.82812 0.67188-1.5 1.5-1.5h12.641c0.82812 0 1.5 0.67188 1.5 1.5v29.02h4.2344v-54.289c0-0.82812 0.67188-1.5 1.5-1.5h12.641c0.82812 0 1.5 0.67188 1.5 1.5v54.289h4c1.3359 0 2.5547 0.55078 3.4375 1.4297 0.88672 0.89062 1.4375 2.1094 1.4375 3.4414v3.3711c0 0.82812-0.67188 1.5-1.5 1.5h-90c-0.82812 0-1.5-0.67188-1.5-1.5v-3.3711c0-1.3359 0.55078-2.5547 1.4297-3.4375 0.88672-0.88672 2.1055-1.4336 3.4453-1.4336zm14.863-44.879 11.852-10.07c-0.31641-0.69141-0.49219-1.4609-0.49219-2.2695 0-1.5078 0.61328-2.875 1.6016-3.8633 0.98828-0.99609 2.3594-1.6094 3.8711-1.6094 1.5117 0 2.8789 0.61328 3.8711 1.6055l0.089844 0.097656c0.9375 0.98438 1.5156 2.3125 1.5156 3.7734l-0.007813 0.28906 9.9141 3.3984c0.1875-0.26562 0.39453-0.51172 0.62109-0.73828 0.98828-0.99609 2.3594-1.6094 3.8711-1.6094 0.94922 0 1.8398 0.23828 2.6172 0.66406l12.508-12.777c-0.46094-0.80078-0.72266-1.7266-0.72266-2.7148 0-1.5078 0.61328-2.875 1.6016-3.8633 0.98828-0.99609 2.3594-1.6094 3.8711-1.6094 1.5117 0 2.8789 0.61328 3.8711 1.6055 0.98828 0.98828 1.6055 2.3594 1.6055 3.8711 0 1.5117-0.61328 2.8789-1.6055 3.8711l-0.097656 0.089844c-0.98438 0.9375-2.3125 1.5156-3.7734 1.5156-0.94531 0-1.8359-0.24219-2.6133-0.66406l-12.512 12.777c0.46094 0.80078 0.72266 1.7266 0.72266 2.7188 0 1.5117-0.61328 2.8789-1.6055 3.8711l-0.097656 0.089844c-0.98438 0.9375-2.3125 1.5156-3.7734 1.5156-1.5078 0-2.875-0.61328-3.8633-1.6016-0.99219-0.99609-1.6094-2.3633-1.6094-3.8711l0.007812-0.28906-9.9141-3.3984c-0.1875 0.26562-0.39453 0.51172-0.62109 0.73828-0.99609 0.99219-2.3633 1.6094-3.8711 1.6094-1.1211 0-2.168-0.34375-3.0391-0.92578l-11.855 10.074c0.31641 0.69141 0.49609 1.4609 0.49609 2.2695 0 1.5078-0.61328 2.875-1.6016 3.8633-0.99609 0.99219-2.3633 1.6094-3.8711 1.6094-1.5078 0-2.875-0.61328-3.8633-1.6016-0.99609-0.98828-1.6094-2.3594-1.6094-3.8711 0-1.5117 0.61328-2.8789 1.6055-3.8711l0.097657-0.089844c0.98437-0.9375 2.3125-1.5156 3.7734-1.5156 1.125 0 2.1719 0.33984 3.043 0.92188zm58.328-27.578c-0.44531-0.44531-1.0664-0.72656-1.75-0.72656s-1.3008 0.27734-1.75 0.72656c-0.44531 0.44531-0.72266 1.0664-0.72266 1.75 0 0.67969 0.27344 1.3008 0.71484 1.7461l0.054687 0.054687c0.44141 0.41406 1.043 0.67188 1.7031 0.67188 0.65234 0 1.25-0.25391 1.6914-0.66406l0.058594-0.058594c0.44531-0.44531 0.72656-1.0664 0.72656-1.75s-0.27734-1.3008-0.72656-1.75zm-39.746 13.488c-0.44531-0.44531-1.0664-0.72656-1.75-0.72656-0.68359 0-1.3008 0.27734-1.75 0.72656-0.44531 0.44531-0.72266 1.0664-0.72266 1.75s0.27734 1.3008 0.72266 1.75c0.44531 0.44531 1.0664 0.72266 1.75 0.72266 0.68359 0 1.3047-0.27734 1.7539-0.72266 0.25391-0.25391 0.45312-0.56641 0.57812-0.91016l0.007812-0.015625 0.007813-0.019531 0.003906-0.007813 0.007813-0.03125c0.078124-0.24219 0.12109-0.49609 0.12109-0.76562 0-0.65234-0.25391-1.25-0.66406-1.6914l-0.058594-0.058594zm19.871 6.8125c-0.44531-0.44531-1.0664-0.72656-1.75-0.72656s-1.3008 0.27734-1.75 0.72656c-0.25391 0.25391-0.45703 0.5625-0.57812 0.91016l-0.003906 0.015626-0.007813 0.019531-0.003906 0.007812-0.007812 0.03125c-0.078125 0.23828-0.12109 0.49609-0.12109 0.76562 0 0.68359 0.27734 1.3047 0.72266 1.7539 0.44531 0.44531 1.0664 0.72266 1.7539 0.72266 0.65234 0 1.25-0.25391 1.6914-0.66406l0.058593-0.058594c0.44531-0.44531 0.72656-1.0664 0.72656-1.75 0-0.68359-0.27734-1.3008-0.72656-1.75zm-39.746 10.082c-0.44531-0.44531-1.0664-0.72266-1.75-0.72266-0.65234 0-1.25 0.25391-1.6914 0.66406l-0.058594 0.058594c-0.44531 0.44531-0.72656 1.0664-0.72656 1.75 0 0.68359 0.27734 1.3008 0.72656 1.75 0.44531 0.44531 1.0664 0.72266 1.75 0.72266 0.68359 0 1.3047-0.27734 1.7539-0.72266 0.44531-0.44531 0.72266-1.0664 0.72266-1.7539 0-0.59375-0.20703-1.1367-0.55078-1.5625l-0.011719-0.015625-0.054687-0.054687-0.011719-0.015625-0.039063-0.042969-0.058594-0.058594zm53.051 42.078h9.6406v-52.789h-9.6406zm-39.746 0h9.6406v-39.301h-9.6406zm19.871 0h9.6406v-27.52h-9.6406zm-39.746 0h9.6406v-17.438h-9.6406zm76.258 3h-83.266c-0.51563 0-0.98828 0.21094-1.3242 0.55078-0.33594 0.33984-0.55078 0.80859-0.55078 1.3242v1.8711h87v-1.8711c0-0.51562-0.21094-0.98437-0.54688-1.3203-0.34375-0.34375-0.80859-0.55078-1.3281-0.55078z"/>
<text x="0.0" y="117.5" font-size="5.0" font-weight="bold" font-family="Arbeit Regular, Helvetica, Arial-Unicode, Arial, Sans-serif" fill="#000000">Created by Riyuv</text><text x="0.0" y="122.5" font-size="5.0" font-weight="bold" font-family="Arbeit Regular, Helvetica, Arial-Unicode, Arial, Sans-serif" fill="#000000">from Noun Project</text></svg>