<svg width="60" height="44" viewBox="0 0 60 44" fill="none" xmlns="http://www.w3.org/2000/svg">
<path d="M6.65179 43.2747C9.81867 43.2747 12.4062 40.6627 12.4062 37.466V0.0410004H46.006V37.466C46.006 40.6627 43.4184 43.2747 40.2516 43.2747" fill="#18181B"/>
<path d="M34.4972 37.4659V33.0606H0.8974V37.4659C0.8974 40.6626 3.48497 43.2745 6.65185 43.2745H40.2516C37.0847 43.2745 34.4972 40.6626 34.4972 37.4659Z" fill="#868686"/>
<path d="M22.718 7.48682H18.4311V9.35807H22.718V7.48682Z" fill="white"/>
<path d="M39.2088 7.48682H26.0393V9.35807H39.2088V7.48682Z" fill="#868686"/>
<path d="M22.718 14.1142H18.4311V15.9854H22.718V14.1142Z" fill="white"/>
<path d="M39.2088 14.1142H26.0393V15.9854H39.2088V14.1142Z" fill="#868686"/>
<path d="M22.718 20.7417H18.4311V22.6129H22.718V20.7417Z" fill="white"/>
<path d="M39.2088 20.7417H26.0393V22.6129H39.2088V20.7417Z" fill="#868686"/>
<path d="M22.718 27.369H18.4311V29.2403H22.718V27.369Z" fill="white"/>
<path d="M39.2088 27.369H26.0393V29.2403H39.2088V27.369Z" fill="#868686"/>
<path opacity="0.1" d="M46.006 27.681V5.4209C45.5426 5.34293 45.0405 5.30395 44.5384 5.30395C38.3978 5.30395 33.4157 10.3329 33.4157 16.5314C33.4157 22.73 38.3978 27.7589 44.5384 27.7589C45.0405 27.7979 45.5426 27.7589 46.006 27.681Z" fill="#0C1E5B"/>
<path d="M48.4398 25.537C54.5828 25.537 59.5626 20.5103 59.5626 14.3094C59.5626 8.10858 54.5828 3.0818 48.4398 3.0818C42.2969 3.0818 37.317 8.10858 37.317 14.3094C37.317 20.5103 42.2969 25.537 48.4398 25.537Z" fill="#868686"/>
<path d="M50.4089 15.0889V8.11069H46.4696V15.0889H43.8434L48.4392 20.5077L53.035 15.0889H50.4089Z" fill="white"/>
</svg>
