<svg width="60" height="47" viewBox="0 0 60 47" fill="none" xmlns="http://www.w3.org/2000/svg">
<path d="M23.9732 0.831123L0.656494 10.4495L23.9732 20.0679L47.2899 10.4495L23.9732 0.831123Z" fill="#18181B"/>
<path d="M14.5092 4.75532L10.1207 6.5251L33.4374 16.182L37.7878 14.3737L14.5092 4.75532Z" fill="#868686"/>
<path d="M0.656494 10.4496V36.9578L23.9732 46.5762V20.0679L0.656494 10.4496Z" fill="#71717A"/>
<path d="M47.2899 10.4496V36.9578L23.9732 46.5762V20.0679L47.2899 10.4496Z" fill="#3C4043"/>
<path opacity="0.1" d="M47.2899 23.9922C46.603 23.8383 45.9161 23.7614 45.191 23.7614C39.5431 23.7614 34.9637 28.3782 34.9637 34.0723C34.9637 36.7269 35.9559 39.1508 37.5968 40.959L47.2899 36.9578V23.9922Z" fill="#0C1E5B"/>
<path d="M33.4373 16.182V27.3008L37.7877 25.4926V14.3737L33.4373 16.182Z" fill="#868686"/>
<path d="M49.3506 43.6137C54.999 43.6137 59.5779 38.9973 59.5779 33.3028C59.5779 27.6082 54.999 22.9919 49.3506 22.9919C43.7022 22.9919 39.1233 27.6082 39.1233 33.3028C39.1233 38.9973 43.7022 43.6137 49.3506 43.6137Z" fill="#868686"/>
<path d="M48.2823 37.304C47.977 37.304 47.7098 37.1886 47.4809 36.9577L44.2371 33.6875C43.7792 33.2258 43.7792 32.4948 44.2371 32.0716C44.6951 31.6099 45.4201 31.6099 45.8399 32.0716L48.2823 34.5339L52.8616 29.9171C53.3196 29.4554 54.0447 29.4554 54.4644 29.9171C54.9224 30.3788 54.9224 31.1098 54.4644 31.533L49.0836 36.9577C48.8547 37.1886 48.5876 37.304 48.2823 37.304Z" fill="white"/>
<path d="M8.21244 33.3798L5.69378 28.1474L3.32776 31.2637L4.62525 31.8408V35.2265L6.72414 36.1883V32.7642L8.21244 33.3798Z" fill="#F2F5F3"/>
</svg>
